<?xml version="1.0" encoding="UTF-8"?>
<svg id="Capa_1" xmlns="http://www.w3.org/2000/svg" version="1.1" viewBox="0 0 101 29">
  <!-- Generator: Adobe Illustrator 29.7.1, SVG Export Plug-In . SVG Version: 2.1.1 Build 8)  -->
  <defs>
    <style>
      .st0 {
        fill: #212125;
      }
    </style>
  </defs>
  <path class="st0" d="M52.89,6.2c-.02-.29-.06-.58-.11-.87-.05-.29-.12-.57-.21-.85-.05-.14-.1-.28-.16-.41-.06-.13-.13-.26-.21-.39-.08-.12-.16-.24-.26-.36-.09-.11-.2-.22-.31-.32-.22-.2-.46-.36-.72-.5-.26-.14-.53-.24-.82-.32-.28-.07-.58-.11-.88-.11s-.59.04-.88.11c-.28.07-.56.18-.82.32-.26.14-.5.31-.72.5-.11.1-.21.2-.31.32-.09.11-.18.23-.26.36-.08.12-.15.25-.21.39-.06.13-.12.27-.16.41-.1.28-.16.56-.22.85-.05.29-.09.58-.11.87-.02.29-.03.58-.03.88,0,.29.03.58.08.87.03.14.06.29.1.43.04.14.09.28.14.42.21.54.51,1.05.83,1.54.16.24.33.49.5.72.17.24.34.47.54.69.1.11.2.21.31.31.11.1.23.18.36.26.12.08.26.15.4.2.07.02.14.04.21.06.07.01.15.02.22.02s.15,0,.22-.02c.07-.01.14-.03.21-.06.14-.05.27-.12.4-.2.13-.08.24-.17.36-.26.11-.1.22-.2.31-.31.2-.22.37-.45.54-.69.17-.24.34-.48.5-.72.33-.49.62-.99.83-1.54.05-.14.1-.28.14-.42.04-.14.07-.29.1-.43.05-.29.08-.58.08-.87,0-.29,0-.58-.03-.88ZM46.05,7.38s1.62.37,2.66,2.55c0,0-2.8-.05-2.66-2.55ZM49.73,9.93c1.04-2.18,2.66-2.55,2.66-2.55.14,2.5-2.66,2.55-2.66,2.55Z"/>
  <polygon class="st0" points="96.6 21.64 97.37 20.96 95.01 20.96 95.01 21.64 96.6 21.64"/>
  <polygon class="st0" points="97.88 23.52 94.4 23.51 94.4 19.21 97.75 19.21 97.75 18.5 93.61 18.5 93.61 24.21 97.96 24.21 97.96 23.52 97.88 23.52"/>
  <polygon class="st0" points="14 18.5 13.21 18.5 13.21 24.21 17 24.21 17.77 23.51 14 23.51 14 18.5"/>
  <rect class="st0" x="24.26" y="18.5" width=".79" height="5.71"/>
  <polygon class="st0" points="47.26 23.1 43.48 18.51 43.47 18.5 42.67 18.5 42.67 24.21 43.43 24.21 43.43 19.6 47.21 24.2 47.22 24.21 48.01 24.21 48.01 18.5 47.26 18.5 47.26 23.1"/>
  <polygon class="st0" points="60.91 23.19 59.21 18.52 59.2 18.5 58.48 18.5 56.76 23.18 55.42 18.53 55.41 18.5 54.59 18.5 56.24 24.19 56.25 24.21 57.13 24.21 58.83 19.62 60.53 24.21 61.41 24.21 63.07 18.55 63.09 18.5 62.26 18.5 60.91 23.19"/>
  <path class="st0" d="M86.51,21.23c.26-.24.39-.56.39-.96v-.2c0-.24-.05-.46-.14-.66-.09-.2-.23-.36-.4-.5-.17-.14-.38-.24-.62-.31-.24-.07-.51-.1-.8-.1h-2.94v5.71h.79v-5h2.1c.43,0,.76.11.99.33.15.14.23.35.23.59v.19c0,.14-.03.27-.1.38-.07.11-.15.2-.26.27-.11.07-.23.13-.37.17-.14.04-.29.06-.43.07h-1.86v.67h1.7l1.38,2.33v.02h.89l-1.49-2.52c.38-.08.7-.24.95-.46Z"/>
  <path class="st0" d="M3.33,18.44l-2.52,5.73-.02.05h.88l.74-1.68.14-.34h2.43l.88,2.02h.87l-2.58-5.78h-.82ZM4.68,21.51h-1.85l.91-2.16.94,2.16Z"/>
  <path class="st0" d="M72.1,18.44l-2.52,5.73-.02.05h.88l.74-1.68.14-.34h2.43l.87,2v.02h.88l-2.58-5.78h-.82ZM73.46,21.51h-1.85l.91-2.16.94,2.16Z"/>
  <polygon class="st0" points="34.66 21.64 35.43 20.96 33.07 20.96 33.07 21.64 34.66 21.64"/>
  <polygon class="st0" points="32.46 23.51 32.46 19.21 35.81 19.21 35.81 18.5 31.67 18.5 31.67 24.21 36.02 24.21 36.02 23.52 35.94 23.52 32.46 23.51"/>
  <polygon class="st0" points="98.48 18.61 98.48 18.5 99.17 18.5 99.17 18.61 98.88 18.61 98.88 19.21 98.75 19.21 98.75 18.61 98.48 18.61"/>
  <polygon class="st0" points="99.48 18.5 99.78 18.92 100.08 18.5 100.22 18.5 100.22 19.21 100.09 19.21 100.09 18.68 99.82 19.06 99.74 19.06 99.47 18.68 99.47 19.21 99.34 19.21 99.34 18.5 99.48 18.5"/>
</svg>