<?xml version="1.0" encoding="UTF-8"?>
<svg id="Capa_1" xmlns="http://www.w3.org/2000/svg" version="1.1" viewBox="0 0 101 29">
  <!-- Generator: Adobe Illustrator 29.7.1, SVG Export Plug-In . SVG Version: 2.1.1 Build 8)  -->
  <defs>
    <style>
      .st0 {
        fill: #1d1d1b;
        fill-rule: evenodd;
      }
    </style>
  </defs>
  <path class="st0" d="M25.41,24.32h-5.22l-1.6-3.85h-8.7l-1.45,3.85H3.31L11.15,4.86h5.62l8.64,19.45h0ZM14.03,9.51l-2.85,7.56h5.99l-3.14-7.56h0Z"/>
  <polygon class="st0" points="44.37 4.86 48.59 4.86 48.59 24.32 43.74 24.32 43.74 12.17 38.49 18.27 37.75 18.27 32.5 12.17 32.5 24.32 27.66 24.32 27.66 4.86 31.88 4.86 38.12 12.08 44.37 4.86 44.37 4.86"/>
  <path class="st0" d="M60.88,4.86c7.1,0,10.75,4.42,10.75,9.75s-3.54,9.7-11.29,9.7h-8.04V4.86h8.58ZM57.14,20.75h3.17c4.88,0,6.33-3.31,6.33-6.16,0-3.34-1.8-6.16-6.39-6.16h-3.11v12.32h0Z"/>
  <polygon class="st0" points="91.22 9.4 81.25 9.4 75.2 3.32 97.42 3.29 97.42 25.54 91.22 19.32 91.22 9.4 91.22 9.4"/>
  <polygon class="st0" points="81.25 19.51 81.28 10.52 74.97 16.83 74.97 25.71 84.1 25.71 90.3 19.51 81.25 19.51 81.25 19.51"/>
</svg>