<?xml version="1.0" encoding="UTF-8"?>
<svg id="Capa_1" xmlns="http://www.w3.org/2000/svg" version="1.1" viewBox="0 0 101 29">
  <!-- Generator: Adobe Illustrator 29.7.1, SVG Export Plug-In . SVG Version: 2.1.1 Build 8)  -->
  <defs>
    <style>
      .st0 {
        fill: #1d1d1b;
        fill-rule: evenodd;
      }
    </style>
  </defs>
  <path class="st0" d="M97.73,5.02c.39,0,.77.1,1.14.3.37.2.66.49.87.86.21.37.31.76.31,1.16s-.1.78-.31,1.15c-.2.37-.49.66-.86.86-.37.2-.75.31-1.15.31s-.79-.1-1.15-.31c-.37-.2-.65-.49-.86-.86-.21-.37-.31-.75-.31-1.15s.1-.79.31-1.16c.21-.37.5-.66.87-.86.37-.2.75-.3,1.14-.3h0ZM97.73,5.4c-.33,0-.64.08-.95.25-.31.17-.55.41-.72.72-.17.31-.26.63-.26.97s.09.65.26.96.41.55.72.72c.31.17.63.26.96.26s.65-.09.96-.26c.31-.17.55-.41.72-.72s.25-.63.25-.96-.09-.66-.26-.97c-.17-.31-.41-.55-.72-.72-.31-.17-.63-.25-.95-.25h0ZM96.71,8.62v-2.49h.86c.29,0,.51.02.64.07.13.05.23.13.31.24.08.12.12.24.12.37,0,.18-.07.34-.2.48-.13.14-.3.21-.52.23.09.04.16.08.21.13.1.1.22.26.37.5l.3.49h-.49l-.22-.39c-.17-.31-.31-.5-.42-.58-.07-.06-.18-.09-.32-.09h-.24v1.06h-.4ZM97.11,7.22h.49c.23,0,.39-.04.48-.1.08-.07.13-.16.13-.28,0-.07-.02-.14-.06-.2-.04-.06-.1-.1-.17-.13-.07-.03-.21-.04-.4-.04h-.46v.75h0Z"/>
  <path class="st0" d="M53.01,4.87h.08v5.33h-5.39v-5.33h5.31ZM29.57,16.14l12.46.77c.52,0,.94.42.94.94h0c0,.52-.42.94-.94.94h-17.76v-6.94c.55,2.14,2.42,3.9,5.3,4.28h0ZM24.27,24.16h18.15c2.65,0,4.87-1.91,5.36-4.42.43,2.5,2.62,4.42,5.23,4.42h11.6c2.59,0,4.76-1.89,5.22-4.36v4.36h18.59c3,0,5.46-2.46,5.46-5.46v-.77c0-3-2.46-5.46-5.46-5.46l-1.02-.04c-5.79-.25-11.55-.55-17.33-.84.45,2.27,2.36,4.15,5.36,4.56l12.6.77c.52,0,.94.42.94.94h0c0,.52-.42.94-.94.94h-18.11v-7.22l-5.39-.28v6.18c0,.86-.71,1.57-1.57,1.57h-8.3c-.86,0-1.57-.71-1.57-1.57v-6.77l-5.39-.28v6.12c-.62-2.32-2.75-3.99-5.28-3.99l-23.72-1.55v13.14h5.57ZM46.85,10.2v-5.36h-17.28c-2.55,0-4.71,1.77-5.3,4.15v-4.12h-10.31l-3.51,5.33h36.4ZM16.43,10.88l-8.52,13.28H1.24l8.99-13.63,6.2.36h0ZM93.88,10.2v-5.36h-18.45c-2.97,0-5.4,2.4-5.46,5.36h23.91ZM64.53,10.2v-5.33h5.39v5.33h-5.39Z"/>
</svg>