<?xml version="1.0" encoding="UTF-8"?>
<svg id="Capa_1" xmlns="http://www.w3.org/2000/svg" version="1.1" viewBox="0 0 101 29">
  <!-- Generator: Adobe Illustrator 29.7.1, SVG Export Plug-In . SVG Version: 2.1.1 Build 8)  -->
  <defs>
    <style>
      .st0, .st1 {
        fill: #010101;
      }

      .st1 {
        stroke: #010101;
        stroke-miterlimit: 10;
        stroke-width: .1px;
      }
    </style>
  </defs>
  <path class="st1" d="M65.23,4.87h0ZM65.23,3.28v-.21h.17c.12,0,.22-.03.29-.08.07-.04.11-.13.11-.25,0-.14-.05-.23-.15-.28-.05-.03-.12-.04-.2-.04h-.21v-.22h.2c.15,0,.27.02.36.06.17.08.27.23.27.45,0,.11-.02.21-.07.27-.04.07-.11.13-.19.17.07.03.13.07.17.12.04.05.06.13.06.24h0v.25h0c0,.07.01.12.02.16.02.06.04.1.08.12h0v.04h-.31s-.02-.04-.02-.06c0-.03,0-.07-.01-.15h0v-.32h-.01c0-.12-.05-.21-.14-.25-.05-.03-.12-.04-.23-.04h-.17ZM65.23,4.87c.46,0,.9-.18,1.22-.5.33-.33.51-.76.51-1.22s-.18-.9-.51-1.22c-.32-.32-.76-.5-1.22-.5v.17c.42,0,.81.16,1.1.45.29.29.45.68.45,1.09,0,.85-.7,1.55-1.55,1.55v.17ZM65.23,1.43c-.94,0-1.72.77-1.72,1.72,0,.46.18.89.51,1.22.32.32.75.5,1.21.5v-.17c-.41,0-.8-.16-1.09-.45-.29-.29-.45-.68-.45-1.09h0c0-.42.16-.8.45-1.09.29-.29.68-.45,1.09-.45v-.17h0ZM65.23,4.87h0ZM65.23,2.21v.22h-.42v.65h.42v.21h-.42v.81h-.25v-1.89h.67Z"/>
  <path class="st0" d="M62.88,4.52c-.65-.3-1.4-.67-5.52-2.18C52.64.61,50.27.18,48.81.18s-3.82.43-8.54,2.16c-4.11,1.51-4.87,1.88-5.52,2.18-3.18,1.45-4.08,2.96-4.08,6.75v6.97c0,3.52.54,4.54,3.77,5.95,1.12.48,2.81,1.32,7.12,2.96,1.91.72,4.77,1.68,7.25,1.68s5.36-.96,7.26-1.68c4.32-1.63,6.01-2.47,7.13-2.96,3.22-1.4,3.76-2.43,3.76-5.95v-6.97c0-3.79-.9-5.29-4.08-6.75ZM65.94,14.43v4.07c0,2.67-.62,3.69-2.82,4.68-1.85.82-2.03.91-5.85,2.4-2.41.94-5.62,2.19-8.46,2.19s-6.04-1.25-8.45-2.19c-3.82-1.5-4-1.58-5.85-2.4-2.21-.99-2.82-2.01-2.82-4.68v-7.7c0-3.45,1.55-4.62,3.77-5.54.79-.33,1.11-.54,5.05-2,3.25-1.21,6.22-2.11,8.3-2.11s5.06.9,8.3,2.11c3.95,1.46,4.27,1.67,5.05,2,2.22.93,3.78,2.09,3.78,5.54v3.63Z"/>
  <path class="st0" d="M40.62,4.69s-.07.01-.11.02c-1.99.44-2.59,2.69-2.56,5.16.03,2.67,1.13,4.23,2.67,4.31.04,0,.09,0,.13,0,2.08,0,2.79-2.52,2.7-5.23-.08-2.59-1.17-4.55-2.83-4.27ZM40.69,12.22s-.05,0-.07,0c-.75-.06-.99-1.54-1-2.61-.01-.94.19-2.77.84-3.06.06-.03.11-.04.16-.05.65-.04.96,1.58.99,2.76.04,1.53-.18,2.94-.93,2.96ZM55.41,14.08h4.24v-1.78l-2.44-.17v-1.86l1.96.28v-1.81l-1.96-.42v-1.61l2.44.66v-1.6l-4.24-1.49v9.78ZM64.64,13.13c.03-1.31-.04-2.05-.89-2.57.37-.09.81-.5.88-1.16.11-1.08-.24-1.97-1.88-2.53l-.24-.09-2.32-.8v8.09h1.53v-3.13s.13,0,.42.06c.14.03.25.07.37.13.52.25.8.83.8,1.81,0,.7-.02,1.12.29,1.12h1.22v-.15c-.2,0-.19-.26-.18-.79ZM62.56,9.5s-.02,0-.04,0c-.31-.07-.79-.17-.79-.17v-1.31s.32.09.79.22c.02,0,.03.01.05.01.49.14.75.48.75.94,0,.39-.36.41-.75.32ZM52.47,3.28l-2.04-.7v11.5h4.31v-2.15l-2.26-.17V3.28ZM46.78,2.66c-.06.01-.12.02-.18.04-1.79.4-2.88,2.97-2.78,6.11.09,3.31,1.27,5.24,2.96,5.37.05,0,.1,0,.16,0,1.67.02,3.13-2.14,3.01-6.16-.09-3.04-1.11-5.66-3.16-5.36ZM46.86,11.75s-.06,0-.08,0c-.83-.07-1.08-2.14-1.12-3.45-.04-1.34.29-3.2,1.02-3.49.04-.01.07-.02.1-.03.77-.14,1.07,1.96,1.11,3.44.05,1.86-.24,3.49-1.03,3.54ZM35.3,12.6c-.83.07-1.08-.99-1.08-1.96,0-1.33.45-2.42,1.02-2.57.51-.14.81.5.88,1.19l1.5-.33c-.13-2.02-1.17-2.52-2.45-2.29-1.65.29-2.52,2.09-2.52,4.15s1.21,3.45,2.68,3.39c1.31-.05,2.35-1.28,2.39-3.53l-1.6.24c.03.86-.29,1.66-.82,1.7Z"/>
  <path class="st0" d="M46.42,17.87c-.03-.58.39-.97.8-.93.3.04.47.2.58.52.08.22.07.42.07.63l1.92.19c.17-2.08-.69-3.54-2.52-3.57-1.42-.02-2.67,1.31-2.63,3.16.07,3.03,3.59,2.7,3.63,5.51,0,.42-.22.85-.65.81-.25-.03-.57-.18-.71-.44-.14-.24-.24-.62-.27-1.24l-1.89-.43c-.02,1.77.62,3.65,2.47,4.06,1.81.4,3.45-1.08,3.03-3.62-.48-2.92-3.74-3.09-3.83-4.65ZM40.51,14.82l-2.16,8.43,1.66.59.37-1.66,1.73.46.32,2.04,1.98.67-1.95-10.52h-1.95ZM40.67,20.47l.6-2.73.11-.5.48,3.47-1.19-.24ZM64.62,20.35c0-1.37-.41-1.75-.95-1.99.45-.21.98-.59.98-1.65,0-1.29-.79-1.9-2.11-1.9h-2.33v8.12l1.52-.54v-3s.19-.04.45-.09c.12-.02.23-.02.34,0,.45.09.79.58.81,1.45.01.32,0,.29,0,.61,0,.24.05.44.45.3l1.02-.34v-.21c-.2.06-.17-.45-.17-.76ZM62.51,17.7s-.07.02-.12.02c-.37.05-.66.1-.66.1v-1.38s.26-.02.78-.06h.03c.42-.03.76.19.76.59,0,.45-.37.65-.79.73ZM50.4,17.31l1.3-.09v8.64l2-.68v-8.13l1.03-.08v-2.16h-4.33v2.49ZM55.41,24.6l4.24-1.51v-1.6l-2.44.7v-1.78l1.97-.43v-1.79l-1.97.28v-1.68l2.44-.17v-1.8h-4.24v9.79ZM35.42,19.15l-.65-4.33h-1.73v6.6l1.19.41v-4.32l.66,4.54.89.32.95-4.52v4.85l1.37.48v-8.36h-1.83l-.85,4.33Z"/>
</svg>