<?xml version="1.0" encoding="UTF-8"?>
<svg id="Capa_1" xmlns="http://www.w3.org/2000/svg" version="1.1" viewBox="0 0 101 29">
  <!-- Generator: Adobe Illustrator 29.7.1, SVG Export Plug-In . SVG Version: 2.1.1 Build 8)  -->
  <defs>
    <style>
      .st0 {
        fill: #010101;
        fill-rule: evenodd;
      }
    </style>
  </defs>
  <path class="st0" d="M7.07,2.18h10.75l1.18.05,1.13.1,1.08.25,1.03.25.93.39.88.39.83.49.79.54.69.59.69.64.59.69.54.74.44.78.44.79.34.83.29.83L44.95.71l5.55,3.73-11.88,7.66,1.91,1.28,11.97-7.61,5.15,3.43-11.83,7.8,2.01,1.23,12.02-7.66V2.18h8.83v16.73h7.85v7.85h-16.68v-8.05l-14.87,9.57-15.16-10.26-.29.88-.29.83-.44.83-.44.83-.54.74-.59.74-.64.69-.74.59-.74.59-.88.49-.88.44-.98.39-1.03.29-1.08.2-1.13.15-1.23.05H7.07V2.18h0ZM15.51,9.89h2.31l1.03.1.83.29.74.44.64.59.44.69.34.74.2.83.05.83-.05.83-.2.83-.34.74-.49.69-.59.59-.74.44-.88.29-.98.1h-2.31v-9.03h0ZM78.76,2.18h8.88v16.73h7.8v7.85h-16.68V2.18h0Z"/>
</svg>