<?xml version="1.0" encoding="UTF-8"?>
<svg id="Capa_1" xmlns="http://www.w3.org/2000/svg" version="1.1" viewBox="0 0 101 29">
  <!-- Generator: Adobe Illustrator 29.7.1, SVG Export Plug-In . SVG Version: 2.1.1 Build 8)  -->
  <path d="M47.89,28.64c-.14,0-.28,0-.42,0l2.89-7.94h3.98c.7,0,1.46-.54,1.7-1.19l3.14-8.61c.51-1.41-.29-2.56-1.8-2.56h-5.52l-4.63,12.72h0l-2.62,7.21c-6.23-1.48-10.86-7.08-10.86-13.76S38.12,2.55,44.07.88l-2.71,7.44h0l-4.5,12.37h3s3.83-10.51,3.83-10.51h2.25l-3.83,10.51h3s3.57-9.81,3.57-9.81c.51-1.41-.29-2.56-1.79-2.56h-2.52l2.89-7.95c.21,0,.42-.01.64-.01,7.81,0,14.14,6.33,14.14,14.14s-6.33,14.14-14.14,14.14h0ZM56.45,10.17h-2.25l-3.15,8.65h2.25l3.15-8.65Z"/>
</svg>