<?xml version="1.0" encoding="UTF-8"?>
<svg id="Capa_1" xmlns="http://www.w3.org/2000/svg" version="1.1" viewBox="0 0 101 29">
  <!-- Generator: Adobe Illustrator 29.7.1, SVG Export Plug-In . SVG Version: 2.1.1 Build 8)  -->
  <defs>
    <style>
      .st0 {
        fill: #010101;
      }
    </style>
  </defs>
  <rect class="st0" x="15.65" y="1.21" width="5.24" height="5.24"/>
  <g>
    <path d="M20.75,28.5V9.64h-4.96v18.86h4.96ZM53.7,28.68v-4.62c-.73,0-1.34-.04-1.79-.11-.52-.07-.91-.26-1.17-.52-.26-.26-.43-.63-.52-1.12-.07-.47-.11-1.08-.11-1.83v-6.6h3.6v-4.25h-3.6V2.28h-4.98v18.25c0,1.55.13,2.85.39,3.9.26,1.03.71,1.86,1.32,2.5s1.44,1.08,2.42,1.36c1.01.28,2.27.41,3.78.41h.65ZM82.18,28.5V.82h-4.98v27.68h4.98ZM40.34,11.48c-1.38-1.49-3.32-2.24-5.78-2.24-1.19,0-2.27.24-3.26.73-.97.48-1.81,1.16-2.46,2.01l-.28.35v-2.7h-4.9v18.86h4.94v-10.05.69-.34c.06-1.77.48-3.08,1.3-3.91.88-.89,1.94-1.34,3.15-1.34,1.44,0,2.53.45,3.26,1.3.71.86,1.08,2.07,1.08,3.62h0v.04h0v9.97h5.01v-10.7c.02-2.68-.69-4.81-2.07-6.3ZM74.63,19.03c0-1.36-.24-2.63-.71-3.82-.48-1.17-1.16-2.22-1.99-3.11-.86-.89-1.88-1.58-3.08-2.09s-2.52-.75-3.95-.75c-1.36,0-2.65.26-3.84.76-1.19.52-2.24,1.21-3.11,2.09s-1.58,1.92-2.09,3.11c-.52,1.19-.76,2.48-.76,3.84s.24,2.65.73,3.84c.48,1.19,1.17,2.24,2.03,3.11.86.88,1.92,1.58,3.15,2.09,1.23.52,2.59.78,4.04.78,4.21,0,6.82-1.92,8.39-3.71l-3.58-2.72c-.75.89-2.53,2.11-4.77,2.11-1.4,0-2.55-.32-3.43-.97-.88-.63-1.47-1.53-1.79-2.63l-.06-.17h14.82v-1.77h0ZM59.85,17.3c0-1.38,1.58-3.78,4.99-3.8,3.41,0,5.01,2.4,5.01,3.78l-10.01.02Z"/>
    <path d="M87.85,26.04c-.09-.22-.22-.41-.39-.58-.17-.17-.35-.3-.58-.39s-.47-.15-.71-.15c-.26,0-.48.06-.71.15-.22.09-.41.22-.58.39-.17.17-.3.35-.39.58-.09.22-.15.47-.15.71,0,.26.06.48.15.71s.22.41.39.58c.17.17.35.3.58.39s.47.15.71.15c.26,0,.48-.06.71-.15.22-.09.41-.22.58-.39.17-.17.3-.35.39-.58.09-.22.15-.47.15-.71s-.06-.48-.15-.71ZM87.55,27.34c-.07.19-.19.35-.32.48-.13.13-.3.24-.48.32s-.37.11-.6.11c-.21,0-.41-.04-.6-.11-.19-.07-.35-.19-.48-.32s-.24-.3-.32-.48c-.07-.19-.11-.37-.11-.6,0-.21.04-.41.11-.6s.19-.35.32-.48c.13-.13.3-.24.48-.32s.37-.11.6-.11c.21,0,.41.04.6.11.19.07.35.19.48.32s.24.3.32.48c.07.19.11.37.11.6.02.22-.04.41-.11.6ZM86.5,26.9c.15-.02.26-.07.35-.17s.15-.22.15-.41c0-.21-.06-.35-.19-.47-.11-.11-.32-.17-.56-.17h-.82v2.11h.39v-.86h.28l.52.86h.41l-.54-.89ZM86.3,26.6h-.47v-.6h.47c.06,0,.11.02.17.04.06.02.09.06.11.09s.04.09.04.17-.02.13-.04.17c-.04.04-.07.07-.11.09-.06.02-.11.04-.17.04Z"/>
  </g>
</svg>