<?xml version="1.0" encoding="UTF-8"?>
<svg id="Capa_1" xmlns="http://www.w3.org/2000/svg" version="1.1" viewBox="0 0 101 29">
  <!-- Generator: Adobe Illustrator 29.7.1, SVG Export Plug-In . SVG Version: 2.1.1 Build 8)  -->
  <defs>
    <style>
      .st0 {
        fill: #010101;
      }
    </style>
  </defs>
  <path class="st0" d="M32.72,24.83c-2.12,0-3.79-1.65-3.79-3.79h-3.35c0,3.97,3.15,7.02,7.15,7.02s7.15-3.04,7.15-7.02h-3.36c0,2.14-1.68,3.79-3.79,3.79M39.74,9.53v-2.63h-4.65c-.75-.26-1.55-.41-2.37-.41-4,0-7.15,3.05-7.15,7.02s3.15,7.02,7.15,7.02,7.15-3.05,7.15-7.02c0-1.34-.36-2.66-1.08-3.64l.95-.33ZM32.72,17.33c-2.12,0-3.79-1.68-3.79-3.84s1.68-3.79,3.79-3.79,3.82,1.65,3.82,3.82-1.68,3.82-3.82,3.82M5.55,20.14h3.3V1.3h-3.3v18.84ZM17.29,6.49c-4,0-7.15,3.05-7.15,7.02s3.15,7.02,7.15,7.02,7.15-3.05,7.15-7.02-3.15-7.02-7.15-7.02M17.29,17.33c-2.12,0-3.79-1.68-3.79-3.84s1.68-3.79,3.79-3.79,3.82,1.65,3.82,3.82-1.68,3.82-3.82,3.82M41.19,20.14h3.3V6.9h-3.3v13.24ZM75.22,9.69c1.39,0,2.53.72,3.41,1.73l2.3-2.27c-1.29-1.63-3.33-2.66-5.65-2.66-4,0-7.15,3.05-7.15,7.02s3.15,7.02,7.15,7.02c2.32,0,4.36-1.03,5.65-2.66l-2.3-2.27c-.85.98-2.01,1.73-3.43,1.73-2.12,0-3.74-1.65-3.74-3.82s1.63-3.82,3.77-3.82M95.76,5.35c0-.26-.18-.36-.44-.36h-.41v1.19h.15v-.46h.26l.28.46h.18l-.31-.49c.18-.03.28-.13.28-.34M95.07,5.56v-.41h.26c.21,0,.28.08.28.21s-.08.21-.28.21h-.26ZM89.47,6.49c-1.63,0-3.02.62-4,1.68V1.3h-3.3v18.84h3.3v-7.2c0-1.91,1.21-3.23,3.23-3.23,1.88,0,2.92,1.16,2.92,3.23v7.2h3.3v-7.79c0-3.66-2.3-5.86-5.45-5.86M60.23,6.49c-3.97,0-6.99,3.05-6.99,7.1s2.76,6.94,7.04,6.94c2.37,0,4.49-.88,6.04-2.53l-2.22-2.19c-1.08,1.03-2.25,1.78-3.74,1.78-1.81,0-3.17-1.03-3.64-2.76h10.29v-.8c0-4.52-2.79-7.54-6.79-7.54M56.64,12.14c.44-1.75,1.78-2.74,3.51-2.74s3.02.95,3.43,2.74h-6.94ZM95.32,4.45c-.64,0-1.16.52-1.16,1.13s.52,1.16,1.16,1.16,1.14-.52,1.14-1.16-.52-1.13-1.14-1.13M95.32,6.59c-.57,0-1.01-.44-1.01-1.01s.44-.98,1.01-.98.98.44.98.98-.44,1.01-.98,1.01M42.81.94c-1.21,0-2.17.95-2.17,2.19s.95,2.17,2.17,2.17,2.22-.96,2.22-2.17-.96-2.19-2.22-2.19M50.99,2.82h-3.3v4.08h-1.78v2.94h1.78v10.3h3.3v-10.3h1.81v-2.94h-1.81V2.82Z"/>
</svg>