<?xml version="1.0" encoding="UTF-8"?>
<svg id="Capa_1" xmlns="http://www.w3.org/2000/svg" version="1.1" viewBox="0 0 101 29">
  <!-- Generator: Adobe Illustrator 29.7.1, SVG Export Plug-In . SVG Version: 2.1.1 Build 8)  -->
  <defs>
    <style>
      .st0 {
        fill: #010101;
      }
    </style>
  </defs>
  <path class="st0" d="M5.61,4.86h9.17c0,3.06,0,6.11,0,9.17H5.61V4.86h0Z"/>
  <path class="st0" d="M15.71,4.86h9.17c0,3.06,0,6.11,0,9.17-3.06,0-6.11,0-9.17,0,0-3.06,0-6.11,0-9.17h0Z"/>
  <path class="st0" d="M88.29,8.36c.85-.55,1.94-.6,2.89-.34,0,.57,0,1.13,0,1.7-.45-.2-.99-.33-1.46-.13-.38.15-.6.54-.66.93-.07.49-.02.99-.04,1.48.97,0,1.93,0,2.9,0,0-.63,0-1.26,0-1.88.66-.19,1.31-.4,1.96-.59,0,.83,0,1.65,0,2.48.65,0,1.31,0,1.96,0v1.61c-.66-.03-1.31,0-1.97,0,0,.93,0,1.85,0,2.78.01.51-.03,1.03.03,1.54.04.3.15.63.43.79.47.26,1.07.15,1.51-.14v1.63c-.57.25-1.2.32-1.81.28-.58-.04-1.18-.25-1.56-.72-.44-.52-.55-1.23-.56-1.89,0-1.42,0-2.84,0-4.26-.97,0-1.94,0-2.9,0,0,2.23,0,4.46,0,6.69h-1.98c0-2.23,0-4.46,0-6.69-.46,0-.92,0-1.38,0,0-.53,0-1.06,0-1.59.46-.01.92,0,1.37,0,.03-.7-.07-1.43.14-2.11.18-.62.57-1.18,1.12-1.53h0Z"/>
  <path class="st0" d="M45.83,8.47c.4-.06.83.08,1.1.39.31.34.37.89.14,1.29-.25.45-.82.66-1.32.55-.51-.09-.94-.57-.92-1.1-.01-.56.45-1.06,1.01-1.13h0Z"/>
  <path class="st0" d="M30.64,8.72h2.88c.9,2.28,1.8,4.56,2.7,6.84.23.57.44,1.15.69,1.71,1.15-2.85,2.33-5.69,3.47-8.54.92-.01,1.85,0,2.77,0,0,3.85,0,7.71,0,11.56-.67,0-1.33,0-2,0,0-2.84,0-5.69,0-8.53,0-.13,0-.26-.01-.38-.04.06-.07.12-.1.19-1.15,2.91-2.31,5.81-3.45,8.73-.47.02-.95,0-1.43,0-1.18-2.91-2.35-5.83-3.53-8.74-.03-.06-.06-.12-.1-.18-.02,1.25,0,2.49-.01,3.74,0,1.73,0,3.45,0,5.18-.63,0-1.26,0-1.89,0,0-3.85,0-7.71,0-11.56h0Z"/>
  <path class="st0" d="M51.29,11.99c.96-.27,1.99-.26,2.95,0,.2.06.39.13.57.24-.01.63,0,1.26,0,1.9-.64-.49-1.45-.8-2.26-.7-.65.06-1.26.39-1.65.91-.5.65-.61,1.51-.53,2.3.06.62.32,1.24.8,1.65.5.44,1.2.6,1.86.55.65-.07,1.26-.35,1.78-.73,0,.6,0,1.2,0,1.8-.81.48-1.78.61-2.71.56-.95-.05-1.9-.41-2.58-1.08-.75-.72-1.15-1.75-1.2-2.77-.05-1.07.17-2.18.78-3.08.52-.76,1.32-1.3,2.2-1.55h0Z"/>
  <path class="st0" d="M72.95,11.86c.92-.16,1.88-.04,2.74.29,0,.61,0,1.22,0,1.82-.61-.42-1.35-.64-2.08-.62-.37.01-.78.17-.95.52-.13.35-.04.81.29,1.01.56.38,1.23.54,1.82.87.46.26.9.59,1.14,1.08.44.91.25,2.11-.52,2.79-.73.69-1.79.87-2.76.84-.69-.04-1.38-.18-2.02-.46,0-.64,0-1.28,0-1.92.53.39,1.15.66,1.8.78.45.07.95.08,1.37-.13.4-.2.48-.78.24-1.13-.22-.27-.55-.42-.87-.57-.58-.26-1.2-.48-1.71-.88-.36-.28-.63-.68-.74-1.13-.16-.66-.11-1.4.27-1.98.44-.67,1.2-1.07,1.97-1.21h0Z"/>
  <path class="st0" d="M59.24,12.12c.55-.33,1.24-.36,1.84-.16,0,.66,0,1.32,0,1.98-.39-.25-.88-.36-1.34-.32-.56.06-1.01.5-1.24.99-.25.52-.3,1.12-.28,1.69,0,1.32,0,2.64,0,3.96h-1.95c0-2.76,0-5.52,0-8.28.65,0,1.31,0,1.96,0,0,.47,0,.95,0,1.42.21-.52.53-1.02,1.02-1.3h0Z"/>
  <path class="st0" d="M45.01,12c.66,0,1.32,0,1.97,0,0,2.76,0,5.52,0,8.28h-1.97c0-2.76,0-5.52,0-8.29h0Z"/>
  <path class="st0" d="M64.73,11.84c.95-.12,1.96-.07,2.84.33.77.35,1.39.99,1.73,1.75.37.82.46,1.73.39,2.61-.06.86-.33,1.73-.87,2.41-.55.73-1.39,1.22-2.28,1.4-.76.16-1.56.16-2.32,0-.91-.19-1.76-.72-2.29-1.49-.63-.89-.81-2.03-.73-3.1.05-.91.34-1.82.92-2.53.63-.8,1.61-1.27,2.61-1.39h0ZM65.32,13.42c-.47.03-.95.19-1.3.51-.48.44-.71,1.09-.77,1.73-.07.7-.02,1.44.3,2.07.25.5.7.88,1.24,1.03.53.14,1.1.13,1.62-.07.44-.17.78-.53.97-.96.29-.63.31-1.34.28-2.03-.05-.62-.23-1.28-.68-1.73-.43-.43-1.06-.6-1.66-.56h0Z"/>
  <path class="st0" d="M80.53,11.84c.99-.12,2.04-.06,2.94.4.79.39,1.4,1.11,1.7,1.93.24.63.32,1.31.31,1.98,0,1-.27,2.03-.9,2.82-.59.77-1.49,1.27-2.44,1.43-.93.15-1.91.11-2.79-.24-.89-.35-1.64-1.07-2.01-1.95-.39-.9-.43-1.92-.31-2.88.13-.96.56-1.9,1.31-2.55.61-.53,1.39-.84,2.19-.94h0ZM81.07,13.42c-.55.03-1.09.27-1.45.69-.39.46-.56,1.06-.6,1.65-.05.61,0,1.24.24,1.81.2.48.57.89,1.05,1.09.44.19.94.23,1.42.15.44-.06.87-.28,1.16-.62.29-.35.44-.78.51-1.22.1-.59.1-1.19-.02-1.77-.1-.5-.32-.99-.72-1.32-.43-.38-1.03-.51-1.59-.47h0Z"/>
  <path class="st0" d="M5.61,14.97c3.06,0,6.11,0,9.17,0,0,3.06,0,6.11,0,9.17H5.61v-9.17h0Z"/>
  <path class="st0" d="M15.71,14.97c3.06,0,6.11,0,9.17,0v9.17h-9.17c0-3.06,0-6.11,0-9.17h0Z"/>
</svg>