<?xml version="1.0" encoding="UTF-8"?>
<svg id="Capa_1" xmlns="http://www.w3.org/2000/svg" version="1.1" viewBox="0 0 101 29">
  <!-- Generator: Adobe Illustrator 29.7.1, SVG Export Plug-In . SVG Version: 2.1.1 Build 8)  -->
  <defs>
    <style>
      .st0 {
        fill: #010101;
      }
    </style>
  </defs>
  <g id="g2100">
    <g id="g2096">
      <path id="path14" d="M99.48,19.59v-.28h.18c.1,0,.23,0,.23.13,0,.13-.08.15-.19.15h-.22ZM99.48,19.79h.12l.27.48h.3l-.3-.5c.16-.01.29-.09.29-.3,0-.26-.18-.35-.49-.35h-.45v1.15h.26v-.48ZM100.77,19.7c0-.68-.52-1.07-1.11-1.07s-1.11.39-1.11,1.07.52,1.07,1.11,1.07,1.11-.39,1.11-1.07M100.46,19.7c0,.49-.37.82-.8.82h0c-.43,0-.79-.33-.79-.82s.36-.82.79-.82.8.33.8.82"/>
      <path id="path16" d="M59.98,8.25v12.14h3.43v-12.14h-3.43ZM33.01,8.23v12.16h3.46v-9.23h2.68c.89,0,1.52.22,1.95.68.54.58.76,1.51.76,3.21v5.34h3.35v-6.72c0-4.79-3.06-5.44-6.05-5.44h-6.16ZM65.5,8.25v12.14h5.56c2.96,0,3.93-.49,4.98-1.6.74-.78,1.22-2.48,1.22-4.34,0-1.71-.4-3.23-1.11-4.18-1.27-1.7-3.1-2.03-5.83-2.03h-4.81ZM68.91,10.89h1.47c2.14,0,3.52.96,3.52,3.45s-1.38,3.45-3.52,3.45h-1.47v-6.91ZM55.04,8.25l-2.86,9.62-2.74-9.62h-3.7l3.92,12.14h4.94l3.95-12.14h-3.5ZM78.85,20.39h3.43v-12.14h-3.43v12.14ZM88.47,8.25l-4.79,12.13h3.38l.76-2.14h5.66l.72,2.14h3.67l-4.83-12.13h-4.58ZM90.69,10.47l2.07,5.68h-4.22l2.14-5.68Z"/>
    </g>
    <path id="path2045" class="st0" d="M11.04,10.63v-1.73c.17-.01.34-.02.51-.03,4.74-.15,7.85,4.07,7.85,4.07,0,0-3.36,4.66-6.96,4.66-.52,0-.98-.08-1.4-.22v-5.25c1.84.22,2.22,1.04,3.32,2.89l2.47-2.08s-1.8-2.36-4.83-2.36c-.33,0-.65.02-.96.06M11.04,4.91v2.59c.17-.01.34-.02.51-.03,6.59-.22,10.88,5.4,10.88,5.4,0,0-4.93,6-10.07,6-.47,0-.91-.04-1.32-.12v1.6c.35.04.72.07,1.1.07,4.78,0,8.24-2.44,11.58-5.33.55.44,2.83,1.53,3.29,2-3.18,2.66-10.6,4.81-14.8,4.81-.41,0-.79-.02-1.18-.06v2.25h18.17V4.91H11.04ZM11.04,17.38v1.37c-4.42-.79-5.65-5.38-5.65-5.38,0,0,2.12-2.35,5.65-2.73v1.5s0,0,0,0c-1.85-.22-3.3,1.51-3.3,1.51,0,0,.81,2.91,3.3,3.75M3.19,13.17s2.62-3.87,7.85-4.27v-1.4C5.25,7.96.23,12.87.23,12.87c0,0,2.84,8.22,10.81,8.97v-1.49c-5.85-.74-7.85-7.18-7.85-7.18"/>
  </g>
</svg>